<!-- created by svgstack.com | Attribution is required. --><svg width="201" height="201" viewBox="0 0 201 201" fill="none" xmlns="http://www.w3.org/2000/svg"><path d="M100.364 0.401123H99.9084C44.8057 0.401123 0.136169 45.0839 0.136169 100.203V100.658C0.136169 155.777 44.8057 200.46 99.9084 200.46H100.364C155.467 200.46 200.136 155.777 200.136 100.658V100.203C200.136 45.0839 155.467 0.401123 100.364 0.401123Z" fill="#383D38"/><path d="M148.481 72.7762V91.6655C145.18 91.3431 140.892 90.5932 136.148 88.855C129.954 86.584 125.344 83.479 122.324 81.0749V119.253L122.247 119.134C122.296 119.891 122.324 120.662 122.324 121.44C122.324 140.399 106.901 155.833 87.9405 155.833C68.9796 155.833 53.5573 140.399 53.5573 121.44C53.5573 102.481 68.9796 87.0396 87.9405 87.0396C89.7973 87.0396 91.6191 87.1868 93.3989 87.4742V106.09C91.6892 105.48 89.8534 105.151 87.9405 105.151C78.9645 105.151 71.6563 112.454 71.6563 121.44C71.6563 130.426 78.9645 137.729 87.9405 137.729C96.9164 137.729 104.225 130.419 104.225 121.44C104.225 121.104 104.218 120.767 104.197 120.431V46.24H123.066C123.136 47.8381 123.2 49.4502 123.27 51.0482C123.396 54.1953 124.517 57.2161 126.472 59.6903C128.763 62.5991 132.147 65.9774 136.898 68.6759C141.348 71.1922 145.524 72.2786 148.481 72.7902V72.7762Z" fill="white"/></svg> 